# xmcd CD database file
#
# Track frame offsets:
#	150
#	10266
#	16275
#	22800
#	30944
#	86055
#	89096
#	92484
#	98308
#	116847
#	120434
#	142037
#	146442
#	164925
#	170373
#	181924
#	194525
#	199135
#	200661
#	209065
#	213150
#	219200
#
# Disc length: 3061 seconds
#
# Revision: 1
# Processed by: cddbd v1.5.1PL2 Copyright (c) Steve Scherf et al.
# Submitted via: CDex 1.51
#
DISCID=330bf316
DTITLE=Van Veen, Herman - Lachen Verboten
DYEAR=2004
DGENRE=liedermacher
TTITLE0=Ein Wort Zuvor
TTITLE1=Warum Bin Ich So Fröhlich
TTITLE2=April
TTITLE3=Kacklied
TTITLE4=Das Zeitfahrrad
TTITLE5=Plätscher Plitscher Feder
TTITLE6=Die Reise
TTITLE7=Lachen
TTITLE8=Champagnien
TTITLE9=Wong Tei
TTITLE10=Im Reich Von Lang
TTITLE11=Indiana
TTITLE12=Häuptling Regenbogen
TTITLE13=Sonenlied
TTITLE14=Das Glänzen
TTITLE15=Die Lösung
TTITLE16=Alles Wird Gut
TTITLE17=Froh
TTITLE18=Lachen
TTITLE19=21 Nächte
TTITLE20=Warum Bin Ich So Fröhlich
TTITLE21=Und Folglich
EXTD=YEAR: 2004
EXTT0=
EXTT1=
EXTT2=
EXTT3=
EXTT4=
EXTT5=
EXTT6=
EXTT7=
EXTT8=
EXTT9=
EXTT10=
EXTT11=
EXTT12=
EXTT13=
EXTT14=
EXTT15=
EXTT16=
EXTT17=
EXTT18=
EXTT19=
EXTT20=
EXTT21=
PLAYORDER=
